<svg width="128" height="28" viewBox="0 0 128 28" fill="none" xmlns="http://www.w3.org/2000/svg">
<path d="M1.66 21V7H8.02C9.54 7 10.88 7.29333 12.04 7.88C13.2 8.45333 14.1067 9.26 14.76 10.3C15.4133 11.34 15.74 12.5733 15.74 14C15.74 15.4133 15.4133 16.6467 14.76 17.7C14.1067 18.74 13.2 19.5533 12.04 20.14C10.88 20.7133 9.54 21 8.02 21H1.66ZM4.9 18.34H7.86C8.79333 18.34 9.6 18.1667 10.28 17.82C10.9733 17.46 11.5067 16.9533 11.88 16.3C12.2667 15.6467 12.46 14.88 12.46 14C12.46 13.1067 12.2667 12.34 11.88 11.7C11.5067 11.0467 10.9733 10.5467 10.28 10.2C9.6 9.84 8.79333 9.66 7.86 9.66H4.9V18.34ZM17.9634 21V10.24H20.9434V13.28L20.5234 12.4C20.8434 11.64 21.3568 11.0667 22.0634 10.68C22.7701 10.28 23.6301 10.08 24.6434 10.08V12.96C24.5101 12.9467 24.3901 12.94 24.2834 12.94C24.1768 12.9267 24.0634 12.92 23.9434 12.92C23.0901 12.92 22.3968 13.1667 21.8634 13.66C21.3434 14.14 21.0834 14.8933 21.0834 15.92V21H17.9634ZM32.3955 21V18.9L32.1955 18.44V14.68C32.1955 14.0133 31.9888 13.4933 31.5755 13.12C31.1755 12.7467 30.5555 12.56 29.7155 12.56C29.1421 12.56 28.5755 12.6533 28.0155 12.84C27.4688 13.0133 27.0021 13.2533 26.6155 13.56L25.4955 11.38C26.0821 10.9667 26.7888 10.6467 27.6155 10.42C28.4421 10.1933 29.2821 10.08 30.1355 10.08C31.7755 10.08 33.0488 10.4667 33.9555 11.24C34.8621 12.0133 35.3155 13.22 35.3155 14.86V21H32.3955ZM29.1155 21.16C28.2755 21.16 27.5555 21.02 26.9555 20.74C26.3555 20.4467 25.8955 20.0533 25.5755 19.56C25.2555 19.0667 25.0955 18.5133 25.0955 17.9C25.0955 17.26 25.2488 16.7 25.5555 16.22C25.8755 15.74 26.3755 15.3667 27.0555 15.1C27.7355 14.82 28.6221 14.68 29.7155 14.68H32.5755V16.5H30.0555C29.3221 16.5 28.8155 16.62 28.5355 16.86C28.2688 17.1 28.1355 17.4 28.1355 17.76C28.1355 18.16 28.2888 18.48 28.5955 18.72C28.9155 18.9467 29.3488 19.06 29.8955 19.06C30.4155 19.06 30.8821 18.94 31.2955 18.7C31.7088 18.4467 32.0088 18.08 32.1955 17.6L32.6755 19.04C32.4488 19.7333 32.0355 20.26 31.4355 20.62C30.8355 20.98 30.0621 21.16 29.1155 21.16ZM43.2773 25.04C42.264 25.04 41.284 24.9133 40.3373 24.66C39.404 24.42 38.624 24.0533 37.9973 23.56L39.2373 21.32C39.6907 21.6933 40.264 21.9867 40.9573 22.2C41.664 22.4267 42.3573 22.54 43.0373 22.54C44.144 22.54 44.944 22.2933 45.4373 21.8C45.944 21.3067 46.1973 20.5733 46.1973 19.6V17.98L46.3973 15.28L46.3573 12.56V10.24H49.3173V19.2C49.3173 21.2 48.7973 22.6733 47.7573 23.62C46.7173 24.5667 45.224 25.04 43.2773 25.04ZM42.7973 20.48C41.7973 20.48 40.8907 20.2667 40.0773 19.84C39.2773 19.4 38.6307 18.7933 38.1373 18.02C37.6573 17.2333 37.4173 16.32 37.4173 15.28C37.4173 14.2267 37.6573 13.3133 38.1373 12.54C38.6307 11.7533 39.2773 11.1467 40.0773 10.72C40.8907 10.2933 41.7973 10.08 42.7973 10.08C43.704 10.08 44.504 10.2667 45.1973 10.64C45.8907 11 46.4307 11.5667 46.8173 12.34C47.204 13.1 47.3973 14.08 47.3973 15.28C47.3973 16.4667 47.204 17.4467 46.8173 18.22C46.4307 18.98 45.8907 19.5467 45.1973 19.92C44.504 20.2933 43.704 20.48 42.7973 20.48ZM43.4173 17.92C43.964 17.92 44.4507 17.8133 44.8773 17.6C45.304 17.3733 45.6373 17.06 45.8773 16.66C46.1173 16.26 46.2373 15.8 46.2373 15.28C46.2373 14.7467 46.1173 14.2867 45.8773 13.9C45.6373 13.5 45.304 13.1933 44.8773 12.98C44.4507 12.7533 43.964 12.64 43.4173 12.64C42.8707 12.64 42.384 12.7533 41.9573 12.98C41.5307 13.1933 41.1907 13.5 40.9373 13.9C40.6973 14.2867 40.5773 14.7467 40.5773 15.28C40.5773 15.8 40.6973 16.26 40.9373 16.66C41.1907 17.06 41.5307 17.3733 41.9573 17.6C42.384 17.8133 42.8707 17.92 43.4173 17.92ZM57.3413 21.16C56.1946 21.16 55.1746 20.92 54.2813 20.44C53.4013 19.96 52.7013 19.3067 52.1813 18.48C51.6746 17.64 51.4213 16.6867 51.4213 15.62C51.4213 14.54 51.6746 13.5867 52.1813 12.76C52.7013 11.92 53.4013 11.2667 54.2813 10.8C55.1746 10.32 56.1946 10.08 57.3413 10.08C58.4746 10.08 59.4879 10.32 60.3813 10.8C61.2746 11.2667 61.9746 11.9133 62.4813 12.74C62.9879 13.5667 63.2413 14.5267 63.2413 15.62C63.2413 16.6867 62.9879 17.64 62.4813 18.48C61.9746 19.3067 61.2746 19.96 60.3813 20.44C59.4879 20.92 58.4746 21.16 57.3413 21.16ZM57.3413 18.6C57.8613 18.6 58.3279 18.48 58.7413 18.24C59.1546 18 59.4813 17.66 59.7213 17.22C59.9613 16.7667 60.0813 16.2333 60.0813 15.62C60.0813 14.9933 59.9613 14.46 59.7213 14.02C59.4813 13.58 59.1546 13.24 58.7413 13C58.3279 12.76 57.8613 12.64 57.3413 12.64C56.8213 12.64 56.3546 12.76 55.9413 13C55.5279 13.24 55.1946 13.58 54.9413 14.02C54.7013 14.46 54.5813 14.9933 54.5813 15.62C54.5813 16.2333 54.7013 16.7667 54.9413 17.22C55.1946 17.66 55.5279 18 55.9413 18.24C56.3546 18.48 56.8213 18.6 57.3413 18.6ZM65.3267 21V10.24H68.3067V13.22L67.7467 12.32C68.1334 11.6 68.6867 11.0467 69.4067 10.66C70.1267 10.2733 70.9467 10.08 71.8667 10.08C72.7201 10.08 73.4801 10.2533 74.1467 10.6C74.8267 10.9333 75.3601 11.4533 75.7467 12.16C76.1334 12.8533 76.3267 13.7467 76.3267 14.84V21H73.2067V15.32C73.2067 14.4533 73.0134 13.8133 72.6267 13.4C72.2534 12.9867 71.7201 12.78 71.0267 12.78C70.5334 12.78 70.0867 12.8867 69.6867 13.1C69.3001 13.3 68.9934 13.6133 68.7667 14.04C68.5534 14.4667 68.4467 15.0133 68.4467 15.68V21H65.3267ZM79.3748 21V7H85.4348C86.6882 7 87.7682 7.20667 88.6748 7.62C89.5815 8.02 90.2815 8.6 90.7748 9.36C91.2682 10.12 91.5148 11.0267 91.5148 12.08C91.5148 13.12 91.2682 14.02 90.7748 14.78C90.2815 15.54 89.5815 16.1267 88.6748 16.54C87.7682 16.94 86.6882 17.14 85.4348 17.14H81.1748L82.6148 15.68V21H79.3748ZM82.6148 16.04L81.1748 14.5H85.2548C86.2548 14.5 87.0015 14.2867 87.4948 13.86C87.9882 13.4333 88.2348 12.84 88.2348 12.08C88.2348 11.3067 87.9882 10.7067 87.4948 10.28C87.0015 9.85333 86.2548 9.64 85.2548 9.64H81.1748L82.6148 8.1V16.04ZM100.11 21V18.9L99.9103 18.44V14.68C99.9103 14.0133 99.7036 13.4933 99.2903 13.12C98.8903 12.7467 98.2703 12.56 97.4303 12.56C96.857 12.56 96.2903 12.6533 95.7303 12.84C95.1836 13.0133 94.717 13.2533 94.3303 13.56L93.2103 11.38C93.797 10.9667 94.5036 10.6467 95.3303 10.42C96.157 10.1933 96.997 10.08 97.8503 10.08C99.4903 10.08 100.764 10.4667 101.67 11.24C102.577 12.0133 103.03 13.22 103.03 14.86V21H100.11ZM96.8303 21.16C95.9903 21.16 95.2703 21.02 94.6703 20.74C94.0703 20.4467 93.6103 20.0533 93.2903 19.56C92.9703 19.0667 92.8103 18.5133 92.8103 17.9C92.8103 17.26 92.9636 16.7 93.2703 16.22C93.5903 15.74 94.0903 15.3667 94.7703 15.1C95.4503 14.82 96.337 14.68 97.4303 14.68H100.29V16.5H97.7703C97.037 16.5 96.5303 16.62 96.2503 16.86C95.9836 17.1 95.8503 17.4 95.8503 17.76C95.8503 18.16 96.0036 18.48 96.3103 18.72C96.6303 18.9467 97.0636 19.06 97.6103 19.06C98.1303 19.06 98.597 18.94 99.0103 18.7C99.4236 18.4467 99.7236 18.08 99.9103 17.6L100.39 19.04C100.164 19.7333 99.7503 20.26 99.1503 20.62C98.5503 20.98 97.777 21.16 96.8303 21.16ZM110.254 21.16C108.987 21.16 108.001 20.84 107.294 20.2C106.587 19.5467 106.234 18.58 106.234 17.3V7.86H109.354V17.26C109.354 17.7133 109.474 18.0667 109.714 18.32C109.954 18.56 110.281 18.68 110.694 18.68C111.187 18.68 111.607 18.5467 111.954 18.28L112.794 20.48C112.474 20.7067 112.087 20.88 111.634 21C111.194 21.1067 110.734 21.16 110.254 21.16ZM104.574 12.64V10.24H112.034V12.64H104.574ZM114.545 21V6.16H117.665V13.22L116.965 12.32C117.352 11.6 117.905 11.0467 118.625 10.66C119.345 10.2733 120.165 10.08 121.085 10.08C121.939 10.08 122.699 10.2533 123.365 10.6C124.045 10.9333 124.579 11.4533 124.965 12.16C125.352 12.8533 125.545 13.7467 125.545 14.84V21H122.425V15.32C122.425 14.4533 122.232 13.8133 121.845 13.4C121.472 12.9867 120.939 12.78 120.245 12.78C119.752 12.78 119.305 12.8867 118.905 13.1C118.519 13.3 118.212 13.6133 117.985 14.04C117.772 14.4667 117.665 15.0133 117.665 15.68V21H114.545Z" fill="#181819"/>
</svg>
